<?xml version="1.0" encoding="UTF-8"?>
<svg id="Layer_1" data-name="Layer 1" xmlns="http://www.w3.org/2000/svg" viewBox="0 0 1600 1600">
  <defs>
    <style>
      .cls-1, .cls-2 {
        stroke-width: 0px;
      }

      .cls-2 {
        fill: #231f20;
      }
    </style>
  </defs>
  <path class="cls-1" d="M800.36,1021.84c-120.94,2.85-220.78-101.06-221.13-219.63-.32-112.55,90.9-221.8,222.85-221.32,120.38.44,219.12,100.26,218.68,220.48-.47,130.01-107.97,223.11-220.41,220.47ZM800.34,611.57c-101.65-.64-189.45,80.85-190.88,188.76-1.4,105.36,85.52,192.01,190.78,192.13,101.75.12,188.7-86.22,190.2-186.06,1.62-107.85-86.13-195.4-190.09-194.83Z"/>
  <path class="cls-1" d="M815.47,728.01c0,12.32-.05,24.64.01,36.95.07,15.23,5.89,21.21,20.84,21.25,25.08.07,50.15.13,75.23-.03,10.81-.07,19.5,2.38,20.24,15.17.62,10.72-6.22,16.03-20.72,16.11-24.64.14-49.28-.32-73.9.29-5.38.14-11.62,2.58-15.84,5.98-13.46,10.85-31.34,10.88-42.96-1.01-11.22-11.48-11.05-28.89-.65-41.95,3.4-4.27,6.07-10.41,6.21-15.77.66-24.62.2-49.26.36-73.9.09-14.7,5.14-21.29,15.66-21.28,10.52.01,15.44,6.69,15.51,21.24.06,12.32.01,24.64.01,36.95Z"/>
  <g>
    <path class="cls-2" d="M689.13,926.5v-.92c0-11.51,5.17-20.87,19.48-31.3,9.33-6.82,12.16-9.18,12.16-14.95s-2.78-8.95-8.35-8.95c-6.48,0-8.81,3.97-9.72,9.72h-13.88c.95-11.41,8.42-20.91,23.6-20.91,16.99,0,22.8,10.11,22.8,20.02s-4.14,14.28-16.31,22.82c-8.15,5.73-11.43,9.49-12.55,12.47h31.31l-1.79,12h-46.76Z"/>
    <path class="cls-2" d="M772.99,926.5v-14.86h-29.9v-12.53l27.59-38.72h15.66v39.61h7.97l-1.32,11.63h-6.65v14.86h-13.35ZM772.99,888.25c0-7.17.01-11.16.29-15.31-2.62,5.53-11.23,18.12-17.45,27.08h17.16v-11.77Z"/>
    <path class="cls-2" d="M799.1,931.63l27.8-75.39h11.93l-27.71,75.39h-12.02Z"/>
    <path class="cls-2" d="M890.02,860.4v10.67c-10.48,14.82-20.73,36.27-23.32,55.43h-14.79c2.61-19.45,14.45-42.76,23.46-54.28h-31.13v-11.82h45.77Z"/>
  </g>
  <path class="cls-1" d="M819.46,478.92c8.02,1.12,16.05,2.16,24.07,3.37,54.14,8.19,103.28,30.59,146.95,67.35,64.51,54.3,105.76,125.98,123.14,214.55,3.52,17.94,4.44,36.51,6.81,54.75.29,2.22,1.75,4.98,3.41,6.13,17.6,12.24,26.75,29.7,26.73,53.13-.04,38.33-.72,76.69.16,114.99,1.14,49.77-45.14,77.96-82.23,54.53-.58-.37-1.19-.69-1.99-1.15-23.41,19.14-49.44,32.21-77.13,41.28-21.27,6.97-42.98,11.23-65.03,13.57-1.72.18-3.87,1.6-4.86,3.19-7.02,11.27-16.54,16.56-28.7,16.44-13.48-.13-26.97.11-40.46-.07-15.81-.2-29.04-13.47-31-30.76-2.09-18.47,7.32-34.68,23.12-39.5,2.63-.8,5.45-1.11,8.18-1.14,14.18-.11,28.35-.05,42.53-.05,9.57,0,17.53,4.17,23.61,12.35,2.17,2.92,4.22,3.73,7.48,3.34,41.69-5.06,81.24-17.37,116.82-43.27,1.56-1.14,3.05-2.41,3.19-3.91-.68-9.79-1.89-19.57-1.96-29.36-.24-36.58-.02-73.16-.13-109.75-.07-23.38,8.62-41.21,26.33-53.29,2.81-1.92,3.17-4.09,2.89-7.18-11.06-120.74-65.18-207.54-162.9-258.75-43.45-22.77-89.79-30.02-137.49-23.79-114.05,14.89-205.19,103.4-233.97,227.8-4.19,18.11-5.47,37.08-8.13,55.64-.44,3.1.61,4.76,3.05,6.44,17.26,11.95,26.06,29.44,26.09,52.3.06,39.11.08,78.22,0,117.33-.06,31.15-19.87,56.57-46.64,60.15-29.21,3.9-54.32-15.3-60.64-46.61-.98-4.88-1.37-10.02-1.39-15.03-.11-38.33-.17-76.67-.03-115,.08-23.42,8.89-41.59,26.96-53.58,2.82-1.87,3.6-4.06,3.8-7.44,5.67-95.71,39.75-176.56,101.67-242.12,47.27-50.04,103.42-80.74,167.62-92.32,10.18-1.84,20.44-3.08,30.66-4.59,13.14,0,26.28,0,39.42,0Z"/>
</svg>