<?xml version="1.0" encoding="UTF-8"?>
<svg id="Layer_1" data-name="Layer 1" xmlns="http://www.w3.org/2000/svg" viewBox="0 0 1600 1600">
  <defs>
    <style>
      .cls-1, .cls-2 {
        stroke-width: 0px;
      }

      .cls-3 {
        fill: none;
        stroke: #000;
        stroke-miterlimit: 10;
        stroke-width: 10px;
      }

      .cls-2 {
        fill: #231f20;
      }
    </style>
  </defs>
  <path class="cls-1" d="M809.25,756.92c0,7.37-.03,14.74,0,22.11.04,9.11,3.52,12.69,12.47,12.71,15,.04,30.01.08,45.01-.02,6.47-.04,11.67,1.42,12.11,9.08.37,6.41-3.72,9.59-12.4,9.64-14.74.08-29.49-.19-44.22.18-3.22.08-6.95,1.54-9.48,3.58-8.06,6.49-18.75,6.51-25.7-.61-6.71-6.87-6.61-17.29-.39-25.1,2.04-2.56,3.63-6.23,3.72-9.44.39-14.73.12-29.48.21-44.22.06-8.79,3.07-12.74,9.37-12.73,6.29,0,9.24,4,9.28,12.71.04,7.37,0,14.74,0,22.11Z"/>
  <g>
    <path class="cls-2" d="M733.66,875.69v-.55c0-6.89,3.1-12.49,11.66-18.73,5.58-4.08,7.27-5.49,7.27-8.95s-1.66-5.36-4.99-5.36c-3.87,0-5.27,2.37-5.82,5.82h-8.3c.57-6.82,5.04-12.51,14.12-12.51,10.16,0,13.64,6.05,13.64,11.98s-2.48,8.55-9.76,13.66c-4.88,3.43-6.84,5.68-7.51,7.46h18.73l-1.07,7.18h-27.98Z"/>
    <path class="cls-2" d="M783.84,875.69v-8.89h-17.89v-7.5l16.51-23.17h9.37v23.7h4.77l-.79,6.96h-3.98v8.89h-7.99ZM783.84,852.8c0-4.29,0-6.68.17-9.16-1.57,3.31-6.72,10.84-10.44,16.2h10.27v-7.04Z"/>
    <path class="cls-2" d="M799.46,878.76l16.63-45.11h7.14l-16.58,45.11h-7.19Z"/>
    <path class="cls-2" d="M853.86,836.14v6.39c-6.27,8.87-12.4,21.7-13.95,33.17h-8.85c1.56-11.64,8.65-25.58,14.04-32.48h-18.62v-7.07h27.39Z"/>
  </g>
  <path class="cls-3" d="M811.65,607.88c4.8.67,9.61,1.29,14.4,2.02,32.39,4.9,61.8,18.3,87.93,40.3,38.6,32.49,63.28,75.38,73.68,128.38,2.11,10.73,2.66,21.85,4.08,32.76.17,1.33,1.05,2.98,2.04,3.67,10.53,7.33,16.01,17.77,15.99,31.79-.02,22.94-.43,45.89.09,68.81.69,29.78-27.01,46.65-49.2,32.63-.35-.22-.71-.41-1.19-.69-14.01,11.45-29.58,19.28-46.15,24.7-12.73,4.17-25.72,6.72-38.91,8.12-1.03.11-2.32.95-2.91,1.91-4.2,6.74-9.9,9.91-17.17,9.84-8.07-.08-16.14.06-24.21-.04-9.46-.12-17.38-8.06-18.55-18.4-1.25-11.05,4.38-20.75,13.83-23.63,1.57-.48,3.26-.67,4.89-.68,8.48-.06,16.97-.03,25.45-.03,5.73,0,10.49,2.5,14.13,7.39,1.3,1.74,2.53,2.23,4.48,2,24.95-3.03,48.61-10.39,69.9-25.89.94-.68,1.83-1.44,1.91-2.34-.41-5.86-1.13-11.71-1.17-17.57-.14-21.89-.01-43.78-.08-65.67-.04-13.99,5.16-24.66,15.75-31.89,1.68-1.15,1.9-2.45,1.73-4.3-6.62-72.25-39-124.18-97.47-154.83-26-13.63-53.73-17.96-82.27-14.24-68.24,8.91-122.77,61.87-140,136.31-2.51,10.84-3.27,22.19-4.87,33.3-.27,1.85.37,2.85,1.82,3.86,10.33,7.15,15.59,17.62,15.61,31.29.03,23.4.05,46.81,0,70.21-.04,18.64-11.89,33.85-27.91,35.99-17.48,2.33-32.5-9.16-36.28-27.89-.59-2.92-.82-5.99-.83-9-.07-22.94-.1-45.87-.02-68.81.05-14.02,5.32-24.88,16.13-32.06,1.68-1.12,2.15-2.43,2.27-4.45,3.39-57.27,23.78-105.65,60.83-144.87,28.29-29.94,61.88-48.31,100.3-55.24,6.09-1.1,12.23-1.84,18.35-2.75,7.86,0,15.73,0,23.59,0Z"/>
  <circle class="cls-3" cx="800" cy="798.54" r="113.85"/>
</svg>