<?xml version="1.0" encoding="UTF-8"?>
<svg id="Layer_1" data-name="Layer 1" xmlns="http://www.w3.org/2000/svg" viewBox="0 0 883.99 664.79">
  <defs>
    <style>
      .cls-1 {
        stroke-width: 0px;
      }
    </style>
  </defs>
  <path class="cls-1" d="M633.86,467.32h-110.67v47.01h110.67v-47.01ZM620.76,501.23h-84.48v-20.82h84.48v20.82Z"/>
  <path class="cls-1" d="M422.09,432.5c13.18-.13,24.86-5.73,32.89-15.77,8.47-10.6,11.59-24.8,8.54-38.95l-1.11-5.17h-17.87c-16.98-.01-34.54-.02-51.86.13-3.21.03-5.43,1.85-6.76,2.93-.21.17-.41.35-.62.5-1.78.79-3.48,1.69-5.14,2.56-3.4,1.79-6.61,3.48-9.17,3.59-19.47.82-39.34.82-59.04,0-2.58-.11-5.8-1.77-9.21-3.53-1.72-.89-3.49-1.8-5.29-2.58-.18-.09-.65-.43-.95-.66-1.52-1.11-3.81-2.78-6.98-2.81-16.9-.16-34.14-.15-50.83-.14h-19.25s-.69,5.78-.69,5.78c-1.91,16.01,1.92,30.37,10.77,40.45,7.64,8.69,18.67,13.54,31.06,13.67,26.36.27,53.09.4,80,.4s54.3-.14,81.53-.41ZM239.34,410.19c-5.35-6.08-8.11-14.64-7.99-24.49h7.33c16.31-.01,33.16-.03,49.67.13.14.1.29.21.42.3.9.65,2.01,1.47,3.43,2.08,1.44.62,2.94,1.4,4.53,2.22,4.31,2.23,9.2,4.75,14.67,4.98,20.07.83,40.3.83,60.14,0,5.51-.23,10.4-2.81,14.72-5.08,1.58-.83,3.06-1.61,4.48-2.24,1.49-.66,2.62-1.58,3.45-2.26,16.8-.14,33.85-.13,50.34-.12h6.93c.63,8.49-1.72,16.61-6.71,22.86-5.52,6.91-13.62,10.76-22.79,10.85-54.23.54-108.49.54-161.26,0-8.75-.09-16.14-3.28-21.36-9.22Z"/>
  <path class="cls-1" d="M883.98,232.88c0-34.41-22.08-56.65-56.23-56.66-20.35,0-40.71,0-61.06,0l-17.14-55.63-180.77,55.62h-59.58s0-.04,0-.04h-154.31c85.71-26.27,172.29-52.89,256.29-78.72l33.88-10.42c19.23-5.91,38.45-11.84,57.99-17.86l35.21-10.85-2.02-6.3c-.7-2.18-1.33-4.28-1.94-6.32-1.34-4.47-2.6-8.69-4.3-12.88-9.96-24.61-35.9-37.71-61.66-31.13-7.84,2-15.62,4.44-23.14,6.79-2.34.74-4.69,1.47-7.04,2.19-51.92,15.97-103.85,31.96-155.77,47.94C337.22,103.31,187.1,149.52,39.38,194.74c-16.38,5.01-29.3,16.46-35.45,31.4-6.47,15.72-4.92,33.9,4.37,51.2l2.55,4.75,5.15-1.59c20.28-6.26,42.36-12.65,63.72-18.84,13.6-3.94,27.62-8,40.84-11.93,0,18.43,0,36.85,0,55.28l-87.37,26.8,87.89,285.82.27-.05c4.21,29.78,25.26,47.2,58.11,47.2h460.6c24.19.01,48.38.02,72.56.02,38.28,0,76.56,0,114.84-.02,33.8-.02,56.51-22.77,56.51-56.61.01-125.09.01-250.18,0-375.27ZM740.88,136.95l11.97,38.84h-138.2l126.23-38.84ZM119.46,235.15c-.05.41-.11.92-.17,1.29-.07.02-.15.05-.24.08-13.81,4.12-28.63,8.41-42.96,12.56-19.55,5.66-39.7,11.49-58.57,17.25-5.3-12.24-5.85-24.58-1.47-35.21,4.65-11.3,14.56-20,27.18-23.86,147.73-45.22,297.85-91.43,443.03-136.13,51.92-15.98,103.84-31.97,155.77-47.94,2.37-.73,4.74-1.47,7.1-2.21,7.35-2.31,14.96-4.69,22.46-6.6,3.36-.86,6.71-1.27,10.01-1.27,15.73,0,30.1,9.36,36.28,24.63,1.47,3.62,2.65,7.56,3.89,11.72.02.07.05.15.07.23l-22.64,6.98c-19.54,6.02-38.75,11.95-57.98,17.86l-33.88,10.42c-93.59,28.78-190.37,58.54-285.59,87.69-4.09,1.25-8.58,1.92-13.01,1.94-27.93.12-56.34.11-83.81.1-13.76,0-27.52,0-41.28,0-8.28,0-15.89,1.23-22.78,3.56-23.31,5.67-37.62,22.86-39.95,48.6-.49,2.22-.91,4.5-1.26,6.85-.08.5-.14.99-.19,1.48ZM120.08,569.81l-70.52-229.33,70.52-21.63v250.96ZM827.47,651.67c-62.47.03-124.94.03-187.4.02H179.47c-29.97-.01-45.82-15.79-45.82-45.62,0-123.88,0-247.76,0-371.63,0-1.88.06-3.7.19-5.46,3.55-15.59,11.92-31.73,30.69-38.23,4.38-.98,9.2-1.48,14.47-1.48h235.37s81.72,0,81.72,0v.04h97.08c78.18,0,156.37,0,234.56,0,27.01,0,43.14,16.29,43.14,43.57.02,125.09.02,250.18,0,375.27,0,26.83-16.64,43.5-43.42,43.51Z"/>
  <path class="cls-1" d="M675.67,514.16h110.77v-46.79h-110.77v46.79ZM688.76,480.46h84.58v20.6h-84.58v-20.6Z"/>
  <path class="cls-1" d="M392.73,363.3h77.33v-64.14h-77.33v64.14ZM405.82,312.26h51.14v37.95h-51.14v-37.95Z"/>
  <path class="cls-1" d="M481.7,467.44h-110.89v46.91h110.89v-46.91ZM468.6,501.26h-84.7v-20.72h84.7v20.72Z"/>
  <path class="cls-1" d="M289.85,299.09h-77.24v64.28h77.24v-64.28ZM276.76,350.27h-51.05v-38.09h51.05v38.09Z"/>
  <path class="cls-1" d="M219.79,289.75h5.62c5.36,0,10.69,0,16.01-.01,14.4-.02,29.3-.03,43.86.08.07,0,.15,0,.22,0,5.7,0,10.17-1.66,14.88-5.54,2.84-2.33,6.82-4.01,9.69-4.09,22.26-.61,42.82-.59,62.85.05,1.66.05,4.2,1.45,6.66,2.81,1.67.92,3.4,1.88,5.26,2.68.69.3,1.39.65,2.08,1,2.49,1.25,5.58,2.81,9.21,2.87,15.11.26,30.45.21,45.28.16l10.1-.03c1.76,0,3.42-.17,4.9-.32.58-.06,1.15-.12,1.71-.16l5.19-.41.76-5.15c2.18-14.76-1.51-28.46-10.41-38.58-8.91-10.13-22.06-15.81-36.21-15.54-37.39.68-75.46.53-112.27.39-13.67-.05-27.34-.11-41.01-.12h-.06c-14.43,0-26.99,5.36-35.35,15.09-8.67,10.08-12.16,24.03-9.83,39.29l.85,5.56ZM238.7,253.44c5.84-6.79,14.87-10.53,25.43-10.53h.04c13.66.01,27.31.07,40.97.12,36.89.15,75.03.3,112.56-.39,10.3-.16,19.77,3.86,26.14,11.09,5.39,6.13,8.03,13.98,7.75,22.9-.03,0-.07,0-.1,0l-10.11.03c-14.76.05-30.04.09-45.02-.16-.64-.01-2.39-.89-3.54-1.47-.94-.47-1.88-.94-2.81-1.34-1.26-.54-2.64-1.3-4.09-2.1-3.63-2.01-7.75-4.28-12.57-4.44-20.29-.65-41.1-.67-63.62-.05-6.9.19-13.63,3.77-17.64,7.06-2.38,1.96-4.06,2.57-6.69,2.56-9.38-.07-18.88-.09-28.3-.09-5.26,0-10.5,0-15.68.01-3.34,0-6.69,0-10.05,0-.31-9.15,2.22-17.26,7.34-23.21Z"/>
  <path class="cls-1" d="M218.36,514.27h110.99v-46.74h-110.99v46.74ZM231.45,480.63h84.8v20.55h-84.8v-20.55Z"/>
  <path class="cls-1" d="M218.04,600.51h568.22v-46.95H218.04v46.95ZM231.14,566.65h542.03v20.76H231.14v-20.76Z"/>
  <path class="cls-1" d="M380.35,292.52c-2.36-2.41-5.64-3.6-10.01-3.55-18.7.11-38.22.1-58.02-.01-4.23.01-7.48,1.11-9.84,3.47-3.54,3.55-3.5,8.53-3.48,10.16.18,19.34.18,38.6,0,57.24-.02,1.68-.06,6.81,3.57,10.46,2.4,2.4,5.68,3.57,10.05,3.57.05,0,.11,0,.16,0,20.5-.14,39.23-.13,57.27.03.07,0,.14,0,.21,0,4.33,0,7.6-1.18,9.98-3.6,3.64-3.7,3.52-8.91,3.48-10.62-.16-6.57-.12-13.3-.09-19.82.01-2.78.03-5.56.03-8.35l-.04-6.55h-.02c0-.66,0-1.33,0-1.99-.04-6.68-.07-13.59.1-20.33.12-4.39-.98-7.7-3.35-10.11ZM370.63,360.79c-.13,0-.29,0-.46,0-9.6-.08-19.39-.13-29.54-.13-8.99,0-18.26.03-27.92.1-.22,0-.42,0-.59-.01-.01-.22-.02-.48-.02-.8.18-18.72.18-38.07,0-57.49,0-.15,0-.29,0-.42h.14c19.84.12,39.42.12,58.17.01.07,0,.14,0,.2,0,0,.07,0,.14,0,.22-.18,6.95-.14,13.96-.11,20.75.01,2.82.03,5.65.03,8.47v6.55h.03c0,.58,0,1.16,0,1.73-.03,6.6-.07,13.44.09,20.19,0,.32,0,.59,0,.81Z"/>
</svg>