<?xml version="1.0" encoding="UTF-8"?>
<svg id="Layer_1" data-name="Layer 1" xmlns="http://www.w3.org/2000/svg" viewBox="0 0 1600 1600">
  <defs>
    <style>
      .cls-1 {
        stroke-width: 0px;
      }

      .cls-2 {
        stroke: #000;
        stroke-miterlimit: 10;
        stroke-width: 4px;
      }
    </style>
  </defs>
  <path class="cls-1" d="M1029.46,877.29c6.86,0,13.39.33,19.88-.08,10.15-.63,14.16,4.2,14.09,13.91-.15,20.65-.05,41.3-.05,63.34,13.59,0,26.35,0,39.1,0,22.24,0,44.49-.25,66.73.24,4.09.09,10.38,2.28,11.58,5.19,1.53,3.7.36,10.17-2.16,13.61-13.34,18.21-27.46,35.85-41.95,54.52,13.44,17.3,27.11,34.19,39.83,51.76,3.21,4.43,5.73,11.88,4.16,16.4-1.13,3.25-9.6,5.5-14.81,5.53-72.58.35-145.17.25-217.76.22-15.43,0-17.82-2.3-17.91-17.47-.11-19.46-.03-38.91-.03-59.07h-260.14c0,19.39.05,38.41-.02,57.42-.06,17.1-2.05,19.12-18.62,19.12-72.2.02-144.39.14-216.59-.26-5.44-.03-13.79-2.52-15.5-6.28-1.8-3.94,1.51-11.7,4.78-16.2,12.37-17,25.62-33.36,39.39-51.04-11.29-14.6-22.64-29.29-34-43.97-2.86-3.7-6.54-7-8.43-11.13-1.77-3.88-3.5-9.54-1.88-12.71,1.58-3.09,7.39-5.57,11.38-5.63,31.21-.45,62.44-.26,93.66-.26,3.81,0,7.62,0,12.59,0,0-20.09-.03-39.14,0-58.18.04-17.98,1.05-18.94,19.42-19,3.75-.01,7.51,0,10.08,0-7.68-36.23-17.8-71.13-21.99-106.72-5.99-50.94-7.79-102.38-10.85-153.63-.23-3.84,2.98-8.75,5.98-11.78,33.17-33.56,66.47-67.01,100.21-100.01,3.94-3.85,10.72-6.78,16.19-6.81,94.83-.41,189.66-.43,284.49.02,5.81.03,12.98,3.23,17.19,7.33,33.23,32.39,66.12,65.16,98.48,98.42,4.28,4.4,7.07,12.27,7.05,18.52-.22,84.36-7.58,167.85-33.22,248.85-.45,1.42-.22,3.05-.37,5.81ZM797.45,877.17c44.47,0,88.95-.59,133.39.38,12.53.27,17.46-4.18,21.32-15.21,24.01-68.69,31.92-139.94,34.54-212.05.16-4.3-2.32-9.75-5.38-12.93-18.4-19.09-37.14-37.87-56.26-56.23-3.45-3.32-9.22-5.96-13.93-5.99-75.28-.36-150.56-.33-225.84,0-4.42.02-9.87,2.32-13.07,5.4-19.1,18.38-37.86,37.13-56.27,56.21-3.07,3.18-5.56,8.64-5.39,12.92.97,24.46,2.32,48.94,4.49,73.32,4.35,48.92,14.39,96.65,30.85,143.04,3.21,9.05,7.87,11.43,16.98,11.33,44.85-.45,89.71-.21,134.57-.2ZM558.3,1002.92h483.27v-104.1h-483.27v104.1ZM626.58,876.26c-.22-1.81-.16-3-.53-4.04-26.89-74.44-36.1-151.73-36.76-230.32-.04-4.8,2.5-10.78,5.86-14.25,21.95-22.69,44.23-45.07,67-66.94,3.99-3.83,10.76-6.69,16.26-6.72,79.97-.45,159.93-.46,239.9-.1,5.18.02,11.6,2.55,15.31,6.13,23,22.2,45.63,44.81,67.76,67.88,3.82,3.98,6.76,10.85,6.6,16.29-1.75,60.35-6.98,120.33-22.41,178.98-4.68,17.81-10.13,35.41-15.23,53.13,1.61.43,2.35.8,3.09.8,7.41.07,14.89-.54,22.22.26,8.31.91,11.19-2.61,13.59-10.22,24.73-78.36,32.3-159.02,32.76-240.64.02-4.03-2.5-9-5.43-11.97-29.82-30.28-59.85-60.36-90.2-90.11-3.14-3.08-8.72-5.15-13.18-5.16-89.73-.29-179.45-.32-269.18.06-5.09.02-11.37,2.78-15.05,6.36-29.56,28.85-58.84,58.01-87.62,87.64-4.01,4.13-6.95,11.4-6.8,17.12.74,28.41.85,57.03,4.61,85.12,5.87,43.78,13.08,87.5,22.44,130.66,7.16,33.01,9.03,32.6,43.04,30.67.38-.02.74-.22,1.97-.61ZM449.77,975.89c7.98,10.25,14.8,18.63,21.21,27.31,20.22,27.41,23.35,19.92-.44,50.2-6.74,8.58-13.25,17.34-20.36,26.68h174.4c-27.65-19.07-53.08-36.9-78.87-54.18-6.65-4.46-9.35-9.64-9.06-17.43.41-10.74.1-21.51.1-32.58h-86.98ZM975.14,1080.3h175.34c-10.79-13.87-20.51-26.28-30.14-38.76-9.85-12.76-9.75-14.42.19-27.17,9.65-12.37,19.18-24.82,29.5-38.18h-86.6c0,10.36-.48,20.1.14,29.77.61,9.54-2.58,15.87-10.81,21.29-25.31,16.66-50.08,34.14-77.62,53.05ZM951.67,1070.9c22.66-15.64,43.32-29.9,65.81-45.42h-65.81v45.42ZM582.06,1025.22c23.53,16.11,44.25,30.3,66.34,45.42v-45.42h-66.34Z"/>
  <path class="cls-1" d="M666.25,726.64c2.89-17.11,23.08-39.87,38.73-42.3,9.95-1.55,18.4,1.36,25.39,8.53,9.48,9.73,19.25,19.22,28.28,29.36,7.51,8.43,13.53,7.9,21.17-.05,28-29.1,56.4-57.83,84.7-86.64,16.45-16.76,31.49-17.01,47.94.06,6.32,6.56,12.81,13.96,16.07,22.22,4.25,10.78.26,21.38-8.03,29.81-43.32,44-86.54,88.1-130.05,131.9-13.26,13.35-28.86,13.34-42.19.09-23.69-23.54-47.26-47.22-70.15-71.52-5.43-5.76-7.98-14.23-11.86-21.46ZM769.28,811.43c4.01-3.12,7.91-5.52,11.04-8.68,41.2-41.67,82.32-83.42,123.39-125.22,10.65-10.84,10-14.54-4.26-28.43-9.86-9.61-12.12-9.53-22.7,1.25-28.54,29.09-56.92,58.32-85.61,87.26-14.19,14.32-29.61,14.13-43.83-.08-9.61-9.6-19.08-19.34-28.32-29.29-5.94-6.39-11.64-7.05-17.88-.75-3,3.03-6.08,5.99-9.01,9.1-6.07,6.46-6.31,12.75.2,19.3,22.72,22.84,45.27,45.84,67.98,68.68,2.37,2.39,5.38,4.14,8.99,6.85Z"/>
  <polygon class="cls-2" points="657.87 944.64 641.95 959.17 644.9 980.52 626.16 969.88 606.77 979.28 611.1 958.17 596.17 942.63 617.58 940.23 627.75 921.22 636.65 940.85 657.87 944.64"/>
  <polygon class="cls-2" points="830.1 944.64 814.18 959.17 817.13 980.52 798.39 969.88 779 979.28 783.33 958.17 768.4 942.63 789.82 940.23 799.98 921.22 808.88 940.85 830.1 944.64"/>
  <polygon class="cls-2" points="1002.33 944.64 986.42 959.17 989.37 980.52 970.63 969.88 951.23 979.28 955.57 958.17 940.63 942.63 962.05 940.23 972.21 921.22 981.12 940.85 1002.33 944.64"/>
</svg>